<?xml version="1.0" encoding="utf-8"?>
<!-- Generator: Adobe Illustrator 21.0.2, SVG Export Plug-In . SVG Version: 6.00 Build 0)  -->
<svg version="1.1" id="Layer_1" xmlns="http://www.w3.org/2000/svg" xmlns:xlink="http://www.w3.org/1999/xlink" x="0px" y="0px"
	 viewBox="0 0 279 265.1" style="enable-background:new 0 0 279 265.1;" xml:space="preserve">
<style type="text/css">
	.st0{fill:#5FBF00;stroke:#000000;stroke-linecap:round;stroke-linejoin:round;stroke-miterlimit:10;}
	.st1{fill:#006C6C;stroke:#000000;stroke-linecap:round;stroke-linejoin:round;stroke-miterlimit:10;}
	.st2{fill:#1A1AE0;stroke:#000000;stroke-linecap:round;stroke-linejoin:round;stroke-miterlimit:10;}
	.st3{fill:#00BFBF;stroke:#000000;stroke-linecap:round;stroke-linejoin:round;stroke-miterlimit:10;}
</style>
<g>
	<title>Layer 1</title>
	<g id="g3876" transform="matrix(-1.88097 -2.25976 2.35007 -1.80869 229.296 1774.83)">
		<g id="g3878">
			<g id="g3884">
				<g id="g3886">
					<path id="path3894" class="st0" d="M426.3,345.4c0.5,0.4,1.1,0.7,1.3,1.2c0.2,0.4,0.2,0.7-0.1,0.9c-0.3,0.2-0.8,0.1-1.2-0.2
						c-2.1-2.1-2.3-3.9-2.2-4.2l0,0l0,0c0,0,0.1,0,0.1,0.2C424.7,344.3,425.5,344.9,426.3,345.4 M427.6,338.9c-0.1-0.5,0-0.7,0-0.9
						c0.3,1.1,1.2,1.6,2,2c0.6,0.3,1.2,0.7,1.5,1.2c0.2,0.5,0.2,1-0.1,1.2c-0.3,0.2-0.8,0.1-1.4-0.2
						C428.1,341.2,427.7,339.6,427.6,338.9 M432.7,335.5c0.5,0.3,1.1,0.8,2.3,0.8c0.7,0,1.1,0.2,1.1,0.5s-0.4,0.8-0.6,0.8
						c-1.7,0.3-2.7-0.6-3.1-1c-0.5-0.5-0.7-1.1-0.6-1.3c0,0,0-0.1,0.1-0.1C432.3,335.2,432.5,335.3,432.7,335.5 M421.3,330.7
						L421.3,330.7L421.3,330.7z M416.8,345.5c-2.4,1.2-4.9,2.5-3.8,6.2l0,0c0.1,0,2.5,0.7,4.2-2.4c0.7-1.3,1.1-1.6,1.4-1.6
						c0.2,0,0.3,0.2,0.3,0.2c0.2,0.4-0.2,1.2-0.7,2.1c-0.8,1.4-1.8,3.1-1,4.7c0.9,1.8,4.1,2.6,5.2,2.7l0,0c0.1-0.2,0.3-0.4,0.6-0.6
						c0.6-0.7,1.5-1.6,1.7-2.9c0.2-1.4-0.5-2.5-1.2-3.7c-0.6-1-1.3-2-1.3-3.2c0-0.6,0.2-1,0.6-1.1c0.3-0.1,0.6,0.1,0.7,0.4
						c1.2,3.9,2.9,4.1,5.2,4.3c0.7,0.1,1.4,0.1,2.1,0.3l0,0l0,0l0.2-0.5c0.4-1.2,0.7-2.4,0.1-3.6c-0.4-0.8-1.8-1.5-3.1-2.2
						c-0.9-0.5-1.8-0.9-2.2-1.3c-0.7-0.7-0.7-2.1-0.3-2.9c0.1-0.2,0.3-0.5,0.6-0.4c0.4,0,1.1,0.3,1.4,1.9c0.6,3,3.8,3.6,5.8,4
						c1.2,0.2,2.1,0.4,2.1,0.9l0,0l0,0c0,0,2.3-3.3,0.5-5.1c-1.1-1.1-2.9-1.7-4.4-2.1c-0.9-0.3-1.7-0.5-2-0.8
						c-0.5-0.4-0.7-0.9-0.7-1.3c0-0.2,0.2-0.4,0.4-0.5c0.3-0.2,0.6-0.2,0.9-0.1s0.6,0.4,0.8,0.9c0.4,1,2.9,2.7,5.9,2.1
						c2.7-0.6,3.5,0,3.9,0.3l0.1,0.1l0,0l0,0c0.3-0.5,0.7-2.1,0-3.6c-0.5-1.1-1.4-1.9-2.7-2.3c-0.9-0.3-1.9,0-2.6,0.2
						c-0.6,0.2-1,0.3-1.3,0.1c-0.2-0.1-0.3-0.3-0.3-0.4c0-0.2,0.3-0.3,0.4-0.3s0.2-0.1,0.2-0.2c0-0.2-0.1-0.3-0.3-0.5
						c-0.1-0.1-0.4-0.2-0.9,0c-3.1,1.4-8.8,4.7-11.5,10.9c-1.9,4.2-2.4,7.5-1.5,9.8c0,0.1,0.1,0.2,0.1,0.2s-0.1,0-0.1-0.1
						c-0.2-0.2-1.6-2,0-7.8c0.1-0.3,0-0.4-0.1-0.5c-0.2-0.1-0.8,0.2-1.1,0.4l-0.4,0.3c-0.7,0.7-2.5,2.3-3,1.9
						c-0.1,0-0.1-0.1-0.1-0.2c0.1-0.6,2-1.8,3-2.5l0.4-0.2c1-0.6,4.1-2.9,3.6-4.6c-0.1-0.3-0.3-0.4-0.5-0.5
						c-0.9-0.3-2.6,0.5-3.9,1.1c-0.6,0.3-1,0.5-1.3,0.6c-0.8,0.3-2.2,0.6-2.4,0.4c0,0,0-0.1,0-0.2c0.2-0.5,1.9-2,3.3-2.2
						c0.3,0,0.7,0,1.1,0c1.6,0,4.1,0,6.9-2.5c0.2-0.2,0.3-0.5,0.1-0.7c-0.1-0.3-0.9-1.1-4.3-0.6c-1.2,0.2-4.8-0.6-5.5-1.2
						c-0.1-0.1-0.1-0.2-0.1-0.2c0.1-0.2,0.3-0.3,0.6-0.4c1.1-0.4,3.1-0.5,5.1,0.3c3,1.2,5.2,1.1,6.3,0.5c0.3-0.2,1.4-0.7,1.4-1.4
						c0-0.4-0.4-0.8-1.3-1.1c-2.7-0.9-4.5-2.6-4.6-3.4c0-0.2,0-0.3,0.1-0.4c0,0,0.1,0,0.4,0c1.1,0.1,3.3,1,4.6,2.8
						c0.8,1,1.7,1.5,2.1,1.5c0.1,0,0.2,0,0.2-0.1c0.1-0.1-0.1-0.2-0.2-0.3c-0.4-0.2-1.1-0.6-1-2c0.1-0.9,0-1.6-0.5-2.3
						c-0.7-1-1.4-1.7-4.4-1.9c0,0-3.5-0.1-4-0.2c0,0,0,0-0.1,0c-0.3,0.6-0.9,3.4,0.2,4.3c0,0.2,0.6,2.1,5.7,2.2
						c0.4,0,0.7,0.2,0.8,0.5c0.1,0.2,0.1,0.5,0,0.7c-0.2,0.2-0.5,0.3-0.9,0.3h-0.3c-1.3-0.1-1.3-0.1-2.8-0.9
						c-4.2-2.3-6.1-2.8-10.8-0.1l0,0c0.6,2.2,1.3,3.5,2.3,3.8c1.5,0.5,3.5,0.2,5.2-0.1c1.5-0.2,2.8-0.4,3.1,0c0.1,0.2,0.1,0.4,0,0.6
						c-0.2,0.3-0.9,0.6-1.9,0.6l-0.4-0.1c-2.1-0.3-7.6-1-9.5,5.9l0,0c1.5,1,3.6,0.7,5.9-1c1.1-0.8,2.1-0.9,2.4-0.6
						c0.2,0.2,0,0.8-1.1,1.7C418.4,344.7,417.6,345.1,416.8,345.5"/>
				</g>
			</g>
		</g>
	</g>
	<path id="svg_1" class="st1" d="M86.6,173c0.5-2.7,3.3-4.4,6-4.5c3.5-0.7,6.2,2.3,9.5,3.2c3.1,0.5,7.2,1.2,8.4,4.7
		c2.4,7.3-1,14.6-0.9,21.9c-0.6,2,2.9,7.1-0.7,6.5c-1.8-4.1-1.7-8.6-2.5-12.9c-0.3-3.5-6.5-4.6-6.1-0.4c0.6,3.1-1.8,4.9-4.6,5
		c-2.8,1.8-1.1,6.2,1.7,7.2c1.9,1.2,4.8,2.6,4.4,5.3c-0.7,2.4-4.1,0.8-6,1c-3.1-0.1-6.1-0.9-9.2-0.9c-2.4-0.1-5.7,2-4.2,4.6
		c1.8,2.8,5.6,2.5,8.5,2.4c2.9,0.5,5.2-1.5,8-1.5s0.9,1.6-0.4,2.4c-7.8,5.8-19.2,7.3-28.2,2.6c-3.7-1.6-2.8-6.6-5.9-8.7
		c-3.7-0.3-4.6-5.3-1.2-6.8c2,0.3,6.6-0.2,5-3.4c-2.5-2.9,1.1-6.9,4.3-6.4c6.5,1.4,11,6.8,15.9,10.9c1.9,2,6.2,4.1,7.8,0.9
		c-2.4-2.3-5.3-3.9-8.2-5.5c-4.7-2.1-9.6-5.9-10-11.3c-0.5-3.9,3.6-6.6,7.1-6.7C87,179.8,84.6,175.9,86.6,173L86.6,173z
		 M106.2,227.2c0.9-2.5,4.1,1.9,1.4,2c-1.7,2.4-2.7,5.3-3.2,8.3c-0.2,2.9-1,6.1,0.5,8.9c1.2,2,4.3,1.5,5.3-0.3
		c2.2-4.9,1.7-10.5,2.3-15.8c0.1-1.6-0.5-4,1.5-4.6c0.6,1,0.3,3.2,0.7,4.6c0.5,4.6,2.1,9.2,4.8,13.1c2.9,3.6,4.1,8.9,1.8,12.9
		c-0.8,2.2-3.6,2.9-5.7,2.2c-2.4-0.6-3.1,2.2-3.6,3.8c-2.6,3.5-8.4,3.4-11.5,0.3c-1.6-1.6-1.2-4.1-2.1-6c-1.2-1.5-3.4-0.4-4.8-1.6
		c-2.2-2.9-2.6-6.7-1.9-10.1C93.4,237.2,99.4,231.2,106.2,227.2L106.2,227.2z M140.1,219.7c4.6-0.1,9.7-1.5,12.3-5.4
		c1.6-3.5-0.1-8.2,2.7-11.2c2.4-5-0.4-11.3-5.1-14.2c-3.1-1.9-6.7-2.6-10.2-2.1c-4.3,0.2-4.8-5.4-8.2-6.9c-3.5-2.7-8.8-3-12.2-0.3
		c-5.6,5.7-8.3,14.2-6.7,22.3c-0.7,2.2,2.8,7.4,4.1,3.5c-0.5-3.9,0.9-9,5.1-10.2c3.6-0.8,4.5,3.6,3.7,6.1c2,1.7,3.4-2.9,5.5-3.4
		c2.9-1.8,7.8,0.8,6.6,4.5c-0.4,4-6.9,2.1-6.7,6c3.9,0.1,1.8,5.6-1.3,4.7c-3-0.1-6.6-2.2-9.1,0.2
		C126.8,216.8,133.3,219.3,140.1,219.7L140.1,219.7z M150.2,248.2c1.1,0,2.1-0.3,3-0.7c2.7-1.1,4.6-3.9,4.1-6.9
		c0.6-2.6-3.5-4.6-2-6.8c2.5-1.5,2.3-5.1,0.8-7.4c-2.2-3.7-6.7-4.8-10.7-4.9c-6.6,0.1-13.4-0.6-19.7-3.1c-2-0.1-4.2-3.2-5.9-1.7
		c2.6,4,6.9,6.5,11.3,8.2c2.4,1.3,5.9,1.5,7.1,4.4c1.1,2.6-2,4.2-4.2,3.1c-2.1,0-4.4-3.5-6.1-1.4c0,1.7,1.1,5.1-2,3.8
		c-3.8-2.5-6.8-6.5-8.1-10.8c-0.5-0.8-0.4-5.3-1.6-3.2c0.2,5.5,1.4,11,3.7,16.1c2.7,6.5,8.6,12.2,15.9,12.9c3.3,0.2,5.1-3.1,5.7-5.9
		C143.8,246.2,146.8,248.3,150.2,248.2L150.2,248.2z"/>
	<path id="path3416-4" class="st0" d="M45.4,96.2c-3.2,0.4-11.9-3.4-17.5-3.4c0.6,1.1,11.9,2.9,16.1,5.5c6.7,3.7-4.4,3.9-7.3,2.6
		c-13.6,1-25.2-7.1-36.8-12.4C14.5,82.9,33.5,86.1,45.4,96.2z M1.5,68.3c6,0,12.1,0.8,17.8,2.6c7,2,16,6.6,19,11.2
		c-6-1.4-11.1-6.1-17.6-5.7c6.5,3.7,14.1,6.1,19.6,11.1c-2.6,2.4-10.8-2.7-15.5-2.9C14.1,83.8,7.4,75.2,1.5,68.3 M2.3,52.5
		c13.8,1.2,27.3,8.2,34.6,18.6c-5.8-4.2-12.3-7.5-19.4-9.7c6.5,3.2,12.8,6.8,17.8,11.7c-1.8,3.4-8.7-3.5-12.8-3.4
		C12.8,67.6,8.4,58.7,2.3,52.5 M49.9,27.3L50,27h0.2c-2.6,4.6-4.6,9.4-5.9,14.4c-4.1,17.6-2.1,37,7.8,53.7c3.1,5,7,9.7,11,14.1
		c4,3.3,11.5,5.5,10.6,11.1C62.3,112.2,52,102.6,45.9,91C36.9,70,37.7,46.1,49.9,27.3L49.9,27.3z M14.1,112.4c1.2-1,2.5-1.9,3.8-2.8
		c10.8-8.6,28.9-6.7,40.6,1.2c-8.8-2.5-18.6-3.9-27.3-1.4c7.6-0.7,15.6-0.4,23.1,1.8c7.5-1.5,4.9,8.3-1.2,4.7
		C40.3,118.8,27,114.5,14.1,112.4L14.1,112.4z M84.2,55.9c-3.1,4.2-7.1,7.8-11.7,10.8C64.2,71.4,54,75,49.6,83.2
		C51,73.6,59.7,67,67.9,61.5c-6.8,1.7-12.3,5.8-16.7,10.4c-2.5,5.9-5.4-2.2-1.9-3.9C54.8,56.9,70.9,53,84.2,55.9 M80.1,69.2
		c-2.3,12-14.7,19.3-19.9,30.1c-1.5,5.7-2.2-1.3-1.8-3.9C58.9,90,61.6,85.3,65,81c-5.9-1.9-5.6,9-11.2,10.1
		C54.5,79.2,67.1,70.9,80.1,69.2 M88.2,80.9L88.1,82l-0.2,1c-0.5,11.5-15.3,16.6-17.8,27.4c0.1-7.3,1.6-14.9,6.7-20.7
		c-2.6,1.4-8.2,8.9-8.6,14.1c0.3,7.2-6.5-0.9-3.8-3.9C66,89.5,77.5,83.5,88.2,80.9 M0.4,40.1c14.2-3,28.4,6.8,34.6,17.6
		c-5.3-2.8-9.9-6.5-15.4-9c-0.9,1.2,8.7,6.5,11.3,9.7c5.9,4.6-3,2.6-4.8,0C15.7,54.6,8.4,46.7,0.4,40.1L0.4,40.1z M11.1,25.8
		c10.6,2.2,22,8.5,24.4,18.3c-4.6,2.5-7.6-8.4-13.1-9.6C27.8,40.2,33.7,46,36.1,53C26.7,44.8,16.7,36.5,11.1,25.8L11.1,25.8z
		 M17.5,9.8c13.8,3,25.1,15.4,23.6,27.6c-5.4-3.6-6.4-10.1-11.8-13.7c3.5,6.1,7.8,12.1,8.8,18.8c-2-1-5.5-7.8-8.9-10.5
		C21.5,26.6,16.3,18.1,17.5,9.8L17.5,9.8z M46.9,20.3c-0.1,6.2-4.7-1-3.8-3.5c-1.7-0.2-0.3,5.3,0.2,7.4c2,5.6-4.1,2.3-3.3-1.2
		c-5-6.4-5.8-14.4-3.8-21.4C42.4,6.4,46.7,13.3,46.9,20.3z M66.4,0c-0.6,7-5.6,12.7-10.3,18c-4.4,4.5-3.1-5-0.7-6.6
		c4.5-6.2-3.8,1.1-3.5,3.9c1.1,4.8-5.1,0.2-2.3-2.1C49.5,5.6,58.1,0.5,66.4,0L66.4,0z M82.1,44.1c-2.7,2.2-5.4,4.5-8.4,6.4
		c-10,4.2-20.7,7.9-28.5,14.9c3.6-6.1,8.6-11.8,15.1-15.8C56.8,49.7,50,55.9,46,59.1C50.6,46.9,67.5,39.8,82.1,44.1L82.1,44.1z
		 M71.4,30c8.4-1.9,7.7,7,1.4,8.7c-9.2,4-19.2,6.9-27.1,12.8c4.4-7,11.7-12.5,20-16c-7.8,1.1-13.7,5.6-19.8,9.3
		C51.6,37.3,60.5,30.8,71.4,30z M80.5,17.8c-1,1.5-2.4,2.7-3.6,4c-4.6,7.7-15.6,8.9-23.7,12.8c-2.2-1.3,5.2-6.1,7.5-8
		c-1.9-1.4-7.7,5.1-11.1,6.6C52.7,22.1,67.2,14.9,80.5,17.8L80.5,17.8z"/>
	<path id="svg_3" class="st2" d="M221.2,205c-1.8-2.5,1.8-5.9-1.1-8.1c-1.9-1.2-5-3.5-6.9-1.7c-0.9,2.6,4.3,2.4,2.8,5.3
		c-2.2,2.8-3.6-1.2-3.7-3.5c-0.4-2.9-5.5-4.3-6.1-1.3c1.7,0.6,4.4,4.7,1.5,5.8c-3.4-0.1-1.1-6.5-4.6-6.5
		c-7.3,1.4-13.8,5.4-19.5,10.2c-3.2,2.1-5.2,5.8-8.7,7.5c-2.8,2.1-7.1-1.7-6-5.2c2.7-4.7,7.1-8.1,11.6-10.4c4.7-2.3,9.7-4,15-4.3
		c3,0.3,6.1-1.5,4.9-5.3c-1.3-3.7,4.1-3.1,3.2,0.2c-1.1,1-3,3.8-0.5,4.7c3.7,1,3.9-3.7,4.4-6.5c1.6-2.8,4.3,1.7,2.2,3.3
		c-1.6,0.4-2.8,2.5-0.6,3.4c3.1,1.7,5.1-1.5,5.2-4.6c1.3-3.4,5.4,0.9,2.4,2.5c-2.1,0.1-2.7,3-0.2,3.4c2.7,1.2,7.4,1,7.2-3.1
		c-1.5-1.6-0.8-4.7,1.6-3.2c3.2,0.9,0.9,4.8,3.6,6c3.7,1.7,0.3,4.5-0.3,6.8c2,4.4-3.8,2.7-5.3,4.6
		C222.7,205.6,221.8,205.6,221.2,205z"/>
	<path id="path7488" class="st3" d="M179,253.1c-2.8,3.4-8.3,2.9-11.6,0.5c-3-4.7-9.4-6.4-11.9-11.3c-0.9-8.6,7-14.6,10.5-21.8
		c1.1-2.1,3-10.9,4.4-4.9c-0.2,5-5.5,9.5-2.6,14.5c4.7,5,5.4-5.3,11-3.4c8.9-0.4,2.8-8.7,0.6-12.5c2.6-6.1,10.3,2,14.8,3.1
		c4.1,3.9,11.5-0.6,7-5.1c-4.4-4.2-12.1-1.9-16.4-5.8c9.3-3.1,20.1-1.8,28.3,3.4c6.6,2.8,7.3,9,7.4,14.7c4.9,3.2,1.4,9.1-4.4,7.2
		c-5.7-2-3.1,8.9-10.2,6.8c-6.1-2.3-8.7-8.5-11.3-13.7c-1.7-3.6-4.4-10.5-9.8-7.8c2.3,5.5,7.8,9.2,10.6,14.5
		c3.3,4.8,1.6,12.8-5.3,13.5C182.6,242.1,182.8,250.2,179,253.1L179,253.1z M183.8,192.5L183.8,192.5c-5.6-0.6,4.1-5.2,5.6-7.5
		c1.8-3.7,7.2-8.7,3.4-12.5c-5.7-1.9-8.5,4.4-10.5,8.1c-2.4,2.3-3.6,10.5-7.3,9.1c1.9-4.6,3.1-9.5,3-14.5c-0.6-5.4-2.5-11.5,2.1-16
		c3.7-5.6,9,1.7,13.2-2.3c5-4.7,14.2-0.5,13.8,5.9c-3.1,5.1,6.2,7.1,3.6,12.8C206.8,186,194.7,191.2,183.8,192.5L183.8,192.5z
		 M144.2,186.2c-2.8-1-5.8-1.6-8.8-1.5c-7.6-0.9-9.4,6.8-13.5,10.8c-6.4,3.2-6.7,11.8-2.8,16.8c2.6,5,10.1,4.2,12.8,8.9
		c0.3,5.9,4.8,12,11.5,12.6c6.3,0,11.6-4.1,15.5-8.3c3.2-4,6.1-8.7,6.7-13.7c-0.1-5.3-4.5-1.5-5.6,1.3c-1.3,5-12.5,6.5-10.5-0.3
		c3-6.1-4-1.1-7.7-2.1c-7.1-0.9-3.9-10.4,2.7-8.2c5.2,0.6,2.3-2.8,3.5-5.4c5-3.3,8.8,5.1,14.1,3.1
		C157,194.4,151.2,189.3,144.2,186.2L144.2,186.2z M147,154.5L147,154.5l-1-0.3l-1.1-0.2c-8-1.4-9.8,6.3-9.9,11.8
		c-6.2,2.7-5.8,10.8,0,14.2c5.5,3.1,11.9,4.8,17.2,8.2c4.7,1.6,7.6,7.9,11.7,8.5c-0.3-6.4-6.8-10.8-11.1-15.4
		c-6.1-4.1,2.4-9,5.7-4.1c1.2,4.6,4.5,2.3,5.7-0.7c4.6,0.3,5.3,7.5,5.8,11.1c1,1.5-2.5,8.3,0.4,5.9c3.6-8.9,5.2-19.5,0.1-28.2
		c-2.6-4-7.5-9.4-13-6.4C153,165,152.1,155,147,154.5L147,154.5z"/>
	<path id="path6656" class="st3" d="M104.2,192.3c-1.2,3.3-5.3,5.3-9,5.4c-4.9,0.8-8.2-2.9-12.5-3.9c-4.2-0.6-9.7-1.5-10.7-5.8
		c-2.1-8.9,3.8-17.7,4.9-26.6c1.2-2.4-2.8-8.6,2-7.8c1.8,5,0.9,10.5,1.3,15.7c-0.2,4.3,8.2,5.7,8.3,0.6c-0.3-3.8,3.3-6,7.2-6
		c4.1-2.1,2.5-7.5-1.2-8.8c-2.5-1.5-6.1-3.3-5.2-6.5c1.3-2.9,5.7-0.9,8.4-1.2c4.2,0.2,8.3,1.1,12.5,1.2c3.2,0.1,8.1-2.4,6.6-5.6
		c-2-3.4-7.3-3.1-11.3-3c-3.8-0.7-7.4,1.8-11.3,1.7c-3.8,0-1-1.9,1-2.9c11.6-7,27.5-8.7,39.2-2.8c4.8,2,2.8,8,6.7,10.6
		c5,0.4,5.4,6.5,0.6,8.2c-2.7-0.4-9,0.2-7.5,4c2.9,3.5-2.6,8.3-7,7.7c-8.7-1.8-13.9-8.4-20.1-13.4c-2.2-2.5-7.8-5-10.5-1.2
		c2.9,2.9,6.7,4.8,10.4,6.7c6.1,2.6,12.2,7.3,11.9,13.9c0,4.8-6,8-10.9,8.1C104.6,184,107.3,188.8,104.2,192.3L104.2,192.3z
		 M86.1,126.3c-1.7,3.1-5.4-2.4-1.6-2.4c2.8-2.9,4.6-6.4,5.8-10c0.7-3.6,2.3-7.4,0.8-10.8c-1.3-2.4-5.6-1.8-7.3,0.3
		c-3.8,5.9-4,12.7-5.7,19.1c-0.5,1.9,0.1,4.9-2.8,5.6c-0.6-1.2,0.1-3.9-0.2-5.6c0.1-5.6-1.3-11.2-4.4-16c-3.4-4.4-4.1-10.8-0.4-15.7
		c1.5-2.6,5.4-3.5,8.2-2.7c3.2,0.7,4.6-2.6,5.6-4.6c4.1-4.2,12.1-4,15.8-0.2c2,2,0.9,5,1.9,7.3c1.5,1.8,4.7,0.5,6.4,2
		c2.5,3.6,2.5,8.2,0.9,12.3C105.3,114.2,96.1,121.5,86.1,126.3L86.1,126.3z M38.3,134.9c-6.3,0.1-13.5,1.6-17.8,6.4
		c-2.8,4.2-1.1,9.9-5.6,13.6c-4.1,6-1.3,13.7,4.6,17.3c4,2.4,8.8,3.2,13.7,2.6c5.9-0.1,5.6,6.6,10.1,8.5c4.3,3.4,11.6,3.8,16.7,0.5
		c8.7-6.8,13.7-17.2,12.9-27c1.3-2.7-2.6-9-5.1-4.3c0,4.8-2.7,10.9-8.7,12.3c-5.1,0.9-5.6-4.4-4-7.5c-2.5-2.1-5.2,3.5-8.1,4
		c-4.3,2.2-10.6-1.1-8.3-5.5c1.3-4.8,9.8-2.5,10.2-7.2c-5.3-0.2-1.6-6.9,2.6-5.7c4.1,0.1,8.7,2.7,12.5-0.2
		C56.2,138.6,47.6,135.5,38.3,134.9L38.3,134.9z M29.2,100.2c-1.4,0-2.9,0.3-4.3,0.8c-3.9,1.3-7,4.7-6.7,8.3
		c-1.2,3.2,4.1,5.6,1.6,8.3c-3.7,1.8-4,6.2-2.3,8.9c2.4,4.5,8.5,5.9,13.9,6c9.1,0,18.3,0.9,26.5,4c2.7,0.1,5.2,3.9,7.8,2.1
		c-3-4.9-8.5-7.9-14.1-10.1c-3.1-1.6-7.9-1.9-9-5.4c-1.1-3.1,3.5-5.1,6.3-3.7c2.9,0.1,5.5,4.3,8.1,1.8c0.2-2-0.7-6.2,3.4-4.6
		c4.9,3.1,8.3,7.9,9.3,13.3c0.5,1-0.3,6.4,1.6,3.9c0.7-6.7-0.1-13.4-2.4-19.6c-2.7-7.9-9.9-14.9-19.7-15.9c-4.5-0.3-7.5,3.8-8.8,7.1
		C37.6,102.7,33.8,100.2,29.2,100.2L29.2,100.2z"/>
	<path id="path6658" class="st2" d="M116.3,125.7c-2.7-1.5-1.3-6-4.8-6.6c-2.2-0.2-6.1-1-6.8,1.5c0.5,2.6,4.9,0.2,4.9,3.5
		c-0.6,3.4-3.8,0.5-4.9-1.5c-1.7-2.4-6.8-1.4-5.9,1.4c1.8-0.2,6.1,2.3,4.1,4.5c-3,1.4-4-5.3-7.1-3.8c-5.6,4.4-9.4,10.6-12.1,17.3
		c-1.8,3.2-1.7,7.4-3.9,10.3c-1.4,3-7,1.5-7.7-2c0.1-5.3,2.3-10.1,5.1-14.2c3-4,6.6-7.6,10.9-10.2s4.6-4,1.7-6.8
		c-2.9-2.7,2.1-4.5,2.9-1.2c-0.5,1.4-0.8,4.6,1.8,4.3c3.6-0.7,1.6-5,0.8-7.6c0.1-3.1,4.6-0.3,3.5,2c-1.2,1-1.2,3.3,1.1,3.3
		c3.5,0.2,3.8-3.5,2.4-6.3c-0.5-3.6,5.1-1.5,3.3,1.2c-1.8,1-0.9,3.8,1.5,3c2.9-0.1,7-2.2,4.8-5.8c-2-0.8-3-3.8-0.2-3.5
		c3.2-0.6,3.1,3.9,6,3.8c4-0.1,2.5,3.9,3,6.2c3.8,3-2,4-2.3,6.3C117.9,125.6,117.2,126,116.3,125.7z"/>
	<path id="path6662" class="st0" d="M177.8,129.1c1-0.2,2.1-0.4,3.1-0.6c6.3-0.9,13-0.7,18.5,1.8c1.7,0.9,3.9,2.1,3.8,3.9
		c-0.9,3.7-2.2,7.5-3.9,11.1c-1.2,3.2-4,5.9-7.5,7.8c-2.3,1.2-5,2.6-7.7,1.9c-1.6-1-2.6-2.5-4.3-3.4c-2.8-1.9-6.8-1.7-10.3-1.3
		c1.7-1.8,3.3-3.6,5.3-5.1c4.1-3.1,9.8-3.5,14.8-5c1.7-0.7,4-1.1,4.9-2.6c0.9-2-2.3-2.4-4-2.6c-4-0.2-8.2,0.6-11.6,2.5
		c-5.6,3.1-9.9,7.6-13,12.4c-0.6,1.6-1.1-0.1-1.5-0.8c-0.9-3.1,0-6.5,1.2-9.6C167,134.6,171.8,130.4,177.8,129.1L177.8,129.1z
		 M140.7,104.2c0.5-0.2,0.9-0.5,1.4-0.7c2-1.6,4.2-0.2,4.7,1.6c4.1,5.3,10.5,9.3,13.9,15c2.9,4.5,4.2,10.1,1.5,15
		c-1.1,1.8-2.6,4-5.2,4.3c-2.8-0.1-5.1-1.8-6.6-3.6c-3.5-4.7-4.4-10.4-5.4-15.9c-0.5-2.3-0.6-4.7-1.7-6.8c-1.6-2.1-3.9,1.1-4.4,2.4
		c-1.8,4.1-0.5,8.5,1.2,12.3c0.9,2.4,2.8,4.4,3.7,6.8c-2.5-0.1-4.9-0.9-6.8-2.1c-4.1-3-6.1-7.6-6.2-12.1
		C130.5,114.3,134.4,108,140.7,104.2L140.7,104.2z"/>
	<path id="svg_4" class="st2" d="M63.5,219.5c1.9,2.5-1.6,5.9,1.4,8c2,1.1,5.1,3.4,6.9,1.5c0.8-2.6-4.4-2.2-2.9-5.2
		c2.1-2.9,3.7,1.1,3.8,3.4c0.5,2.9,5.7,4.1,6.1,1.1c-1.7-0.5-4.6-4.6-1.7-5.8c3.4,0,1.3,6.5,4.8,6.4c7.2-1.6,13.6-5.8,19.2-10.8
		c3.1-2.2,5-6,8.4-7.8c2.7-2.2,7.1,1.5,6.2,5c-2.6,4.8-6.8,8.3-11.3,10.8c-4.6,2.4-9.6,4.3-14.8,4.7c-3-0.2-6,1.7-4.7,5.5
		c1.5,3.7-4,3.3-3.2-0.1c1.1-1.1,2.9-3.8,0.3-4.7c-3.7-0.8-3.8,3.8-4.2,6.6c-1.6,2.8-4.3-1.6-2.3-3.3c1.6-0.5,2.7-2.5,0.5-3.4
		c-3.2-1.6-5.1,1.6-5.1,4.7c-1.2,3.5-5.4-0.8-2.5-2.5c2.1-0.2,2.6-3.1,0-3.4c-2.7-1.1-7.5-0.8-7.1,3.3c1.5,1.6,1,4.7-1.5,3.3
		c-3.2-0.8-1-4.8-3.8-5.9c-3.7-1.6-0.5-4.5,0-6.8c-2.2-4.3,3.7-2.8,5.1-4.8C62,219,62.9,219,63.5,219.5z"/>
</g>
</svg>
